# xmcd
# Copyright (C) 1995-1998 Ti Kan
#
# Track frame offsets:
#       150
#       29294
#       44233
#       62637
#       89565
#       135445
#       157886
#       174253
#       194311
#       215284
#       238694
#       249639
#
# Disc length: 3638 seconds
#
# Revision: 0
# Processed by: cddbd v1.4PL0 Copyright (c) Steve Scherf et al.
# Submitted via: CD-Transfer v1.0
#
DISCID=a20e340c
DTITLE=Lennox Cf - Schukran
DYEAR=2001
DGENRE=
TTITLE0=Let's Do It Wild
TTITLE1=Sex On Sundays
TTITLE2=I'm Going My Way
TTITLE3=Slave Of Love
TTITLE4=Help The Poor
TTITLE5=Shotgun Eddy
TTITLE6=I'm So Hungry
TTITLE7=Good Times
TTITLE8=Feel Good
TTITLE9=The Boys From The Lake
TTITLE10=When The Night Comes
TTITLE11=Raisha Malaisha
EXTD=
EXTT0=
EXTT1=
EXTT2=
EXTT3=
EXTT4=
EXTT5=
EXTT6=
EXTT7=
EXTT8=
EXTT9=
EXTT10=
EXTT11=
PLAYORDER=
